# xmcd
#
# Track frame offsets:
#  150
#  48691
#  67714
#  94281
#  108928
#  123815
#  139197
#  159660
#  175432
#  198476
#  217820
#  242570
#  263038
#  278135
#  288428
#  308538
#  322286
#
# Disc length: 4481 seconds
#
# Revision: 0
# Processed by: cddbd v1.5.1PL0 Copyright (c) Steve Scherf et al.
# Submitted via: Collectorz.com_Music_Collector 6.9
#
DISCID=f9117f11
DTITLE=Johnny V - House Rent Party Band - Agnostically Eclectic
DYEAR=2005
DGENRE=Blues
TTITLE0=The Return Of Richard's Biscuit
TTITLE1=My Tight Woman
TTITLE2=Dangerous To Be A Husband
TTITLE3=Branding By Moonlight
TTITLE4=Let's Do It
TTITLE5=Green's Blues
TTITLE6=Stop
TTITLE7=New Lousiana Blues
TTITLE8=Joe's Mercy Killing
TTITLE9=Living On The Outside
TTITLE10=Suicide Bomber Blues
TTITLE11=Tartaria
TTITLE12=Baby Please Don't Go
TTITLE13=Little Schoolgirl
TTITLE14=It Ain't Easy
TTITLE15=Sprinklerhead
TTITLE16=Last Date
EXTD=
EXTT0=
EXTT1=
EXTT2=
EXTT3=
EXTT4=
EXTT5=
EXTT6=
EXTT7=
EXTT8=
EXTT9=
EXTT10=
EXTT11=
EXTT12=
EXTT13=
EXTT14=
EXTT15=
EXTT16=
PLAYORDER=
